# xmcd
# 
# Track frame offsets:
#     150
#     15333
#     28303
#     42002
#     51757
#     69533
#     79384
#     90851
#     103441
#     114751
#     126297
#     140861
#     156266
#     174819
#     186799
#     197811
# 
# Disc length: 2837
# 
# Revision: 2
# Processed by: cddbd v1.5.2PL0 Copyright (c) Steve Scherf et al.
# Submitted via: BonkEnc v1.0
# 
DISCID=d50b1310
DTITLE=Nina Simone - The Amazing Nina Simone
DYEAR=2005
DGENRE=Jazz
TTITLE0=Blue Prelude
TTITLE1=Children Go Where I Send You
TTITLE2=Tomorrow (We Will Meet Once More)
TTITLE3=Stompin' At The Savoy
TTITLE4=It Might As Well Be Spring
TTITLE5=You've Been Gone Too Long
TTITLE6=That's Him Over There
TTITLE7=Chilly Winds Don't Blow
TTITLE8=Theme From "The Middle Of The Night"
TTITLE9=Can't Get Out Of This Mood
TTITLE10=Willow Weep For Me
TTITLE11=Solitaire
TTITLE12=I Loves You Porgy
TTITLE13=Falling In Love Again (Can't Help It)
TTITLE14=That's All
TTITLE15=16-The Man With A Horn
EXTD=YEAR: 2005
EXTT0=
EXTT1=
EXTT2=
EXTT3=
EXTT4=
EXTT5=
EXTT6=
EXTT7=
EXTT8=
EXTT9=
EXTT10=
EXTT11=
EXTT12=
EXTT13=
EXTT14=
EXTT15=
PLAYORDER=
